<svg width="150" height="500" xmlns="http://www.w3.org/2000/svg" viewBox="0 0 190.15 29.44"><defs><style>.cls-1{fill:#f47920;}.cls-2{fill:#18b792;}.cls-3{fill:#00addc;}.cls-4{fill:#1a1a1a;}</style></defs><title>Asset 5</title><g id="Layer_2" data-name="Layer 2"><g id="Layer_1-2" data-name="Layer 1"><polygon class="cls-1" points="28.89 12.22 0 12.22 0 17.22 24.4 17.22 28.89 12.22"/><polygon class="cls-2" points="19.64 22.53 0 22.53 0 27.53 15.15 27.53 19.64 22.53"/><polygon class="cls-3" points="38.14 1.91 0 1.91 0 6.91 33.65 6.91 38.14 1.91"/><path class="cls-4" d="M68.06,9a25.91,25.91,0,0,1-.31,4.49,5.75,5.75,0,0,1-1.08,2.65,3.87,3.87,0,0,1-2.13,1.24,15.63,15.63,0,0,1-3.45.31H54.51V15.25h6.07A4.41,4.41,0,0,0,62.14,15a1.76,1.76,0,0,0,1-.92,5.87,5.87,0,0,0,.51-1.94,28,28,0,0,0,.15-3.23,28.4,28.4,0,0,0-.15-3.24,6.15,6.15,0,0,0-.5-2,1.94,1.94,0,0,0-1-1,4.07,4.07,0,0,0-1.54-.25H52.83V29.44H48.38V0H61.06a13.85,13.85,0,0,1,3.46.36A3.82,3.82,0,0,1,66.66,1.7a6.28,6.28,0,0,1,1.09,2.75A27.87,27.87,0,0,1,68.06,9Z"/><path class="cls-4" d="M85.52,6.13a10.76,10.76,0,0,1,3.11.38,4,4,0,0,1,2,1.24,4.79,4.79,0,0,1,1,2.23,17.1,17.1,0,0,1,.28,3.29v9a17.14,17.14,0,0,1-.28,3.32,4.81,4.81,0,0,1-1,2.21,4.09,4.09,0,0,1-2,1.23,10.42,10.42,0,0,1-3.11.38H78.9a10.42,10.42,0,0,1-3.11-.38,4.08,4.08,0,0,1-2-1.23,4.8,4.8,0,0,1-1-2.21,16.38,16.38,0,0,1-.28-3.32v-9A16.34,16.34,0,0,1,72.83,10a4.78,4.78,0,0,1,1-2.23,4,4,0,0,1,2-1.24,10.76,10.76,0,0,1,3.11-.38ZM76.84,22.47A15.5,15.5,0,0,0,77,24.74a3,3,0,0,0,.53,1.36,1.86,1.86,0,0,0,1.07.65,7.57,7.57,0,0,0,1.83.17H84a7.57,7.57,0,0,0,1.83-.17,1.86,1.86,0,0,0,1.07-.65,3,3,0,0,0,.52-1.36,14.06,14.06,0,0,0,.15-2.27V13.1a13.84,13.84,0,0,0-.15-2.26,3,3,0,0,0-.52-1.37,1.86,1.86,0,0,0-1.07-.65A8.11,8.11,0,0,0,84,8.65h-3.6a8.11,8.11,0,0,0-1.83.17,1.86,1.86,0,0,0-1.07.65A3,3,0,0,0,77,10.84a15.25,15.25,0,0,0-.14,2.26Z"/><path class="cls-4" d="M112.69,29.44H96.49V26.88L108,8.65H96.69V6.13h15.79V7.94l-11.38,19h11.59Z"/><path class="cls-4" d="M135,20.58q0,4.58-1.55,6.72t-5.29,2.14H117.73V26.92h9.57a5.42,5.42,0,0,0,1.57-.21,2.09,2.09,0,0,0,1.13-.84,4.71,4.71,0,0,0,.68-1.74,15.24,15.24,0,0,0,.23-2.92,15.82,15.82,0,0,0-.17-2.54,3.05,3.05,0,0,0-.61-1.51,2.24,2.24,0,0,0-1.22-.72,9.19,9.19,0,0,0-2-.19h-4.2a7.46,7.46,0,0,1-2.68-.42,3.79,3.79,0,0,1-1.77-1.36,6.19,6.19,0,0,1-1-2.48,20.22,20.22,0,0,1-.3-3.8,10.82,10.82,0,0,1,1.45-6q1.45-2.16,5-2.16h9.19V2.52h-8.14a4.48,4.48,0,0,0-1.51.23,2.39,2.39,0,0,0-1.07.8,3.76,3.76,0,0,0-.65,1.55,12.33,12.33,0,0,0-.21,2.5,19.91,19.91,0,0,0,.12,2.42,3.47,3.47,0,0,0,.49,1.47,1.84,1.84,0,0,0,1,.73,6.27,6.27,0,0,0,1.81.21h4a10.94,10.94,0,0,1,2.92.34,4.08,4.08,0,0,1,2,1.22,5.48,5.48,0,0,1,1.17,2.47A18,18,0,0,1,135,20.58Z"/><path class="cls-4" d="M151.27,8.65h-6.84V23.52a4.53,4.53,0,0,0,.57,2.71,2.77,2.77,0,0,0,2.2.69h2.89v2.52h-4.61a6.75,6.75,0,0,1-2.54-.42,4,4,0,0,1-1.64-1.17,4.84,4.84,0,0,1-.88-1.79,8.78,8.78,0,0,1-.27-2.25V0h4.28V6.13h6.84Z"/><path class="cls-4" d="M166.25,15.46v2.43h-3.81a8.08,8.08,0,0,0-1.82.17,2.33,2.33,0,0,0-1.08.53,1.88,1.88,0,0,0-.52.94,6,6,0,0,0-.15,1.47v2.69a6.72,6.72,0,0,0,.15,1.57,2,2,0,0,0,.52,1,2.07,2.07,0,0,0,1.08.52,8.91,8.91,0,0,0,1.82.15h5.75V13.1a13.84,13.84,0,0,0-.15-2.26,3,3,0,0,0-.52-1.37,1.89,1.89,0,0,0-1.07-.65,8.24,8.24,0,0,0-1.83-.17h-7.05V6.13h8.56a10.76,10.76,0,0,1,3.11.38,4,4,0,0,1,1.95,1.24,4.79,4.79,0,0,1,1,2.23,17.18,17.18,0,0,1,.27,3.29V29.44H160.93a11.64,11.64,0,0,1-3.11-.35A4.68,4.68,0,0,1,155.87,28a3.53,3.53,0,0,1-1-1.72,9.31,9.31,0,0,1-.27-2.37V21a9.31,9.31,0,0,1,.27-2.37,3.6,3.6,0,0,1,1-1.73,4.78,4.78,0,0,1,1.95-1,11.64,11.64,0,0,1,3.11-.35Z"/><path class="cls-4" d="M178.71,10a4.79,4.79,0,0,1,1-2.23,4,4,0,0,1,1.95-1.24,10.76,10.76,0,0,1,3.11-.38h5.37V8.65h-3.86a8.11,8.11,0,0,0-1.83.17,1.86,1.86,0,0,0-1.07.65,2.93,2.93,0,0,0-.52,1.37,13.84,13.84,0,0,0-.15,2.26V29.44h-4.28V13.27A17.18,17.18,0,0,1,178.71,10Z"/></g></g></svg>